<svg width="980" height="256" viewBox="0 0 980 256" fill="none" xmlns="http://www.w3.org/2000/svg">
<path d="M76.665 30.0037C91.6667 30.0037 108.869 35.9134 125.211 46.643C143.483 58.6426 159.705 75.8319 172.116 96.3312C182.007 112.651 188.898 130.33 192.039 147.379C194.909 162.979 194.649 177.858 191.288 190.378C187.478 204.617 180.177 214.787 169.576 220.627C162.745 224.274 155.097 226.122 147.353 225.996C132.352 225.996 115.15 220.087 98.8076 209.357C80.5354 197.357 64.3135 180.168 51.9021 159.669C42.0109 143.349 35.1201 125.67 31.9797 108.671C29.1094 93.0713 29.3694 78.1919 32.7298 65.6723C36.5402 51.4329 43.8411 41.2632 54.4424 35.4235C61.269 31.7582 68.9172 29.8929 76.665 30.0037ZM76.665 0.00478681C63.8721 -0.13946 51.2536 2.97855 40.0007 9.06445C-7.39493 35.1335 -13.5457 109.521 26.229 175.208C56.6326 225.406 105.068 255.995 147.353 255.995C160.146 256.139 172.765 253.021 184.018 246.936C231.393 220.867 237.544 146.479 197.769 80.7918C167.386 30.5936 118.95 0.00478681 76.665 0.00478681Z" fill="#D81B60"/>
<path d="M219.336 29.9983C227.077 29.8612 234.725 31.7025 241.556 35.348C252.156 41.1776 259.456 51.347 263.266 65.5862C266.626 78.1455 266.886 93.0246 264.016 108.584C260.876 125.653 254.016 143.302 244.096 159.631C231.686 180.13 215.466 197.309 197.196 209.308C180.856 220.037 163.616 225.957 148.656 225.957C140.915 226.094 133.266 224.253 126.436 220.607C115.836 214.778 108.536 204.608 104.726 190.369C101.366 177.81 101.106 162.931 103.976 147.372C107.116 130.302 113.976 112.653 123.896 96.3744C136.306 75.8456 152.526 58.6466 170.796 46.6473C187.136 35.9179 204.376 29.9983 219.336 29.9983ZM219.336 0C177.056 0 128.626 30.5782 98.2259 80.7753C58.4559 146.472 64.6059 220.837 111.996 246.926C123.253 253.018 135.877 256.139 148.676 255.995C190.956 255.995 239.386 225.407 269.786 175.21C309.536 109.524 303.386 35.138 255.996 9.06948C244.738 2.9804 232.114 -0.137652 219.316 0.00999965L219.336 0Z" fill="#D81B60"/>
<path d="M489.295 74.815L438.225 180.995H403.055L351.995 74.815H381.115L420.765 157.245L460.185 74.815H489.295Z" fill="white"/>
<path d="M648.355 86.415C659.355 96.275 664.935 110.155 664.935 127.855C664.935 145.775 659.335 159.665 648.355 169.295C637.155 178.925 624.355 183.855 610.055 183.855C594.145 183.855 581.155 178.705 570.625 168.175V222.385H543.955V74.725H570.605V87.495C581.155 76.965 594.375 71.815 610.055 71.815C624.385 71.815 637.155 76.745 648.355 86.415ZM628.415 150.035C634.415 144.435 637.605 137.035 637.605 127.855C637.605 118.675 634.465 111.275 628.415 105.675C622.145 100.075 614.085 97.395 604.005 97.395C593.925 97.395 585.855 100.075 579.815 105.675C573.775 111.275 570.625 118.675 570.625 127.855C570.625 137.035 573.765 144.435 579.815 150.035C585.865 155.635 593.925 158.315 604.005 158.315C614.085 158.315 622.145 155.595 628.415 149.995V150.035Z" fill="white"/>
<path d="M798.065 74.7259V180.906H771.415V167.906C760.885 178.416 747.665 183.816 731.815 183.816C717.748 183.895 704.161 178.7 693.735 169.256C682.535 159.626 676.935 145.736 676.935 127.816C676.935 110.116 682.535 96.2359 693.735 86.3759C704.161 76.9316 717.748 71.7367 731.815 71.8159C747.495 71.8159 760.715 77.1959 771.465 87.7159V74.7159L798.065 74.7259ZM762.005 149.996C768.005 144.396 771.185 136.996 771.185 127.816C771.185 118.636 768.055 111.236 762.005 105.636C755.955 100.036 747.895 97.3559 737.815 97.3559C727.735 97.3559 719.665 100.036 713.625 105.636C707.345 111.236 704.209 118.629 704.215 127.816C704.222 137.003 707.359 144.396 713.625 149.996C719.625 155.596 727.735 158.276 737.815 158.276C747.895 158.276 755.955 155.596 762.005 149.996Z" fill="white"/>
<path d="M918.225 83.6453C927.225 91.4853 931.665 103.355 931.665 119.035V180.865H905.005V128.225C905.005 107.615 895.595 97.3153 876.555 97.3153C867.384 97.2268 858.513 100.581 851.695 106.715C844.305 112.995 840.695 122.395 840.695 134.715V180.865H814.065V74.6853H840.715V90.8153C852.145 78.0453 866.255 71.8153 883.285 71.8153C897.615 71.7753 909.265 75.8053 918.225 83.6453Z" fill="white"/>
<path d="M501.295 74.815H527.955V180.995H501.295V74.815Z" fill="white"/>
<path d="M497.739 55.7555C498.673 57.6996 500.047 59.3994 501.752 60.7199C505.41 63.7067 510.011 65.2947 514.732 65.1999C519.448 65.2251 524.033 63.6452 527.732 60.7199C529.436 59.3983 530.81 57.6984 531.743 55.7545C532.677 53.8106 533.146 51.6761 533.112 49.5199C533.127 47.3372 532.653 45.1789 531.725 43.2029C530.798 41.227 529.44 39.4834 527.752 38.0999C524.055 35.1703 519.469 33.5899 514.752 33.6199C510.023 33.5149 505.413 35.1039 501.752 38.0999C500.059 39.48 498.696 41.2224 497.765 43.1988C496.834 45.1752 496.358 47.3352 496.372 49.5199C496.337 51.6764 496.805 53.8114 497.739 55.7555Z" fill="white"/>
<path d="M947.665 74.815H974.325V180.995H947.665V74.815Z" fill="white"/>
<path d="M944.069 55.7555C945.003 57.6996 946.377 59.3994 948.082 60.7199C951.74 63.7067 956.341 65.2947 961.062 65.1999C965.778 65.2251 970.363 63.6452 974.062 60.7199C975.766 59.3983 977.14 57.6984 978.073 55.7545C979.007 53.8106 979.476 51.6761 979.442 49.5199C979.457 47.3372 978.983 45.1789 978.055 43.2029C977.128 41.227 975.771 39.4834 974.082 38.0999C970.385 35.1703 965.799 33.5899 961.082 33.6199C956.353 33.5149 951.743 35.1039 948.082 38.0999C946.389 39.48 945.026 41.2224 944.095 43.1988C943.164 45.1752 942.688 47.3352 942.702 49.5199C942.667 51.6764 943.135 53.8114 944.069 55.7555Z" fill="white"/>
</svg>
